<svg width="37" height="42" viewBox="0 0 37 42" fill="none" xmlns="http://www.w3.org/2000/svg">
<path d="M26.772 4.96073H20.907C20.5029 2.15977 18.0831 0 15.1662 0H14.0968C11.18 0 8.76013 2.15977 8.35601 4.96073H2.49096C1.11745 4.96073 0 6.07591 0 7.44665V39.5141C0 40.8848 1.11745 42 2.49096 42H26.7721C28.1456 42 29.2631 40.8848 29.2631 39.5141V7.44665C29.263 6.07591 28.1455 4.96073 26.772 4.96073ZM14.0968 1.65728H15.1662C17.1651 1.65728 18.8376 3.07798 19.2231 4.96073H10.0399C10.4254 3.07798 12.0979 1.65728 14.0968 1.65728ZM26.772 6.61801C27.2299 6.61801 27.6023 6.98974 27.6023 7.44665V39.5141C27.6023 39.971 27.2299 40.3427 26.772 40.3427H2.49096C2.03312 40.3427 1.66064 39.971 1.66064 39.5141V7.44665C1.66064 6.98974 2.03312 6.61801 2.49096 6.61801H26.772Z" fill="black"/>
<path d="M23.8218 8.79834H5.44128C4.9827 8.79834 4.61096 9.16932 4.61096 9.62698V17.0471C4.61096 17.5048 4.9827 17.8758 5.44128 17.8758H23.8218C24.2803 17.8758 24.6521 17.5048 24.6521 17.0471V9.62698C24.6521 9.16932 24.2803 8.79834 23.8218 8.79834ZM22.9914 16.2185H6.2716V10.4556H22.9914V16.2185Z" fill="black"/>
<path d="M5.68975 21.9284H14.6315C15.6976 21.9284 15.6992 20.2711 14.6315 20.2711H5.68975C4.62353 20.2711 4.62204 21.9284 5.68975 21.9284Z" fill="black"/>
<path d="M23.8218 36.2341H18.9899C17.9238 36.2341 17.9222 37.8913 18.9899 37.8913H23.8218C24.8855 37.8913 24.8876 36.2341 23.8218 36.2341Z" fill="black"/>
<path d="M23.8218 24.2619H5.68984C4.62371 24.2619 4.62213 25.9192 5.68984 25.9192H23.8218C24.8855 25.9192 24.8876 24.2619 23.8218 24.2619Z" fill="black"/>
<path d="M23.8218 28.2526H5.68984C4.62371 28.2526 4.62213 29.9099 5.68984 29.9099H23.8218C24.8855 29.9099 24.8876 28.2526 23.8218 28.2526Z" fill="black"/>
<path d="M23.8218 32.2433H5.68984C4.62371 32.2433 4.62213 33.9006 5.68984 33.9006H23.8218C24.8855 33.9006 24.8876 32.2433 23.8218 32.2433Z" fill="black"/>
<path d="M37.0001 15.6629C37.0001 13.9692 35.6193 12.5912 33.9222 12.5912C32.225 12.5912 30.8442 13.9692 30.8442 15.6629V21.4124C30.8442 22.4763 32.5049 22.4779 32.5049 21.4124V20.0417H35.3395V35.1062H32.5049V28.1195C32.5049 27.0555 30.8442 27.0539 30.8442 28.1195V35.9348C30.8442 36.0466 30.9115 36.1585 30.9115 36.2616L33.1591 41.49C33.4369 42.1362 34.404 42.144 34.6852 41.49L36.9328 36.2616C36.9328 36.1586 37.0001 36.0466 37.0001 35.9348V15.6629ZM32.5048 18.3844V15.6629C32.5048 14.883 33.1406 14.2485 33.9221 14.2485C34.7036 14.2485 35.3393 14.883 35.3393 15.6629V18.3844H32.5048ZM33.9222 39.0615L32.9343 36.7635H34.9101L33.9222 39.0615Z" fill="black"/>
<path d="M30.9079 25.073C31.0437 25.3982 31.3819 25.6097 31.7352 25.5824C32.0963 25.5546 32.4041 25.2907 32.4843 24.9378C32.6481 24.2163 31.8037 23.6513 31.1966 24.0789C30.8833 24.2995 30.7601 24.7189 30.9079 25.073Z" fill="black"/>
<path d="M16.4155 36.746C16.2441 36.3285 15.748 36.125 15.3311 36.2977C14.9133 36.4708 14.7086 36.9624 14.8819 37.3799C15.0548 37.7967 15.5488 38.0012 15.9663 37.8282C16.3831 37.6555 16.5894 37.1627 16.4155 36.746Z" fill="black"/>
</svg>
