<svg width="37" height="42" viewBox="0 0 37 42" fill="none" xmlns="http://www.w3.org/2000/svg">
<path d="M18.5001 0H10.4834C10.1428 0 9.86671 0.313428 9.86671 0.7V5.6H0.616669C0.276116 5.6 0 5.91343 0 6.3V41.3C0 41.6866 0.276116 42 0.616669 42H18.5001C18.8406 42 19.1167 41.6866 19.1167 41.3V0.7C19.1167 0.313428 18.8406 0 18.5001 0ZM17.8834 36.4H11.1V35H17.8834V36.4ZM1.23334 10.5H9.86671V31.5H1.23334V10.5ZM17.8834 7.7H11.1V5.6H17.8834V7.7ZM1.23334 32.9H9.86671V35H1.23334V32.9ZM11.1 33.6V9.1H17.8834V33.6H11.1ZM17.8834 1.4V4.2H11.1V1.4H17.8834ZM9.86671 7V9.1H1.23334V7H9.86671ZM1.23334 36.4H9.86671V40.6H1.23334V36.4ZM11.1 40.6V37.8H17.8834V40.6H11.1Z" fill="black"/>
<path d="M36.9803 38.3236L29.5803 6.12364C29.539 5.94317 29.436 5.78902 29.2939 5.69502C29.1521 5.60137 28.9832 5.57574 28.8245 5.62393L19.5744 8.42393C19.2468 8.52305 19.0511 8.90381 19.1366 9.27637L26.5367 41.4764C26.5779 41.6568 26.6812 41.811 26.8233 41.9046C26.9651 41.998 27.1341 42.0232 27.2925 41.9747L36.5425 39.1747C36.8695 39.0756 37.0649 38.6955 36.9803 38.3236V38.3236ZM21.4675 13.8725L29.5261 11.4338L29.816 12.6937L21.7581 15.1361L21.4675 13.8725ZM30.1274 14.052L33.7039 29.6252L25.6484 32.065L22.0718 16.4907L30.1274 14.052ZM34.018 30.9805L34.6494 33.7275L26.5909 36.1662L25.9619 33.4202L34.018 30.9805ZM28.5433 7.15757L29.2147 10.0799L21.1562 12.518L20.4853 9.59698L28.5433 7.15757ZM27.5737 40.4424L26.9022 37.5201L34.9608 35.0807L35.6316 38.0017L27.5737 40.4424Z" fill="black"/>
<path d="M8.0167 12.6H3.08334C2.74279 12.6 2.46667 12.9134 2.46667 13.3V18.9C2.46667 19.2866 2.74279 19.6 3.08334 19.6H8.0167C8.35725 19.6 8.63337 19.2866 8.63337 18.9V13.3C8.63337 12.9134 8.35725 12.6 8.0167 12.6ZM7.40003 18.2H3.70001V14H7.40003V18.2Z" fill="black"/>
</svg>
