<svg width="37" height="42" viewBox="0 0 37 42" fill="none" xmlns="http://www.w3.org/2000/svg">
<path d="M35.2487 27.3977V12.5761C35.2487 11.641 34.9404 10.812 34.4854 10.5254L17.9622 0.103971C17.7426 -0.034657 17.5061 -0.034657 17.2864 0.103971L0.763306 10.5254C0.30854 10.812 0 11.6405 0 12.5761C0 13.5111 0.30854 14.3396 0.763306 14.6262L9.03546 19.8438V27.9273C9.03546 27.9627 9.03603 27.9975 9.03687 28.0323C9.06962 30.1288 10.0822 32.1154 11.8964 33.637C13.5538 35.0272 15.5882 35.7927 17.6246 35.7927C19.661 35.7927 21.6955 35.0272 23.3528 33.637C25.1973 32.09 26.2132 30.0625 26.2132 27.9273V19.8438L33.0463 15.5342V27.3977C32.0188 28.2421 31.295 30.2315 31.295 32.5457V39.8455C31.295 41.0351 31.7881 42 32.3962 42H35.8988C36.5068 42 37 41.0351 37 39.8455V32.5457C37 30.2315 36.2765 28.2421 35.2487 27.3977ZM22.1404 29.9493C20.8117 30.9385 19.208 31.4836 17.6246 31.4836C16.041 31.4836 14.4373 30.9385 13.1089 29.9493C11.9444 29.0816 11.3708 28.1433 11.2379 27.7495V21.2329L17.2864 25.0476C17.3963 25.1167 17.5103 25.1515 17.6243 25.1515C17.7384 25.1515 17.8524 25.1172 17.9622 25.0476L24.0108 21.2329V27.7511C23.8767 28.1455 23.3034 29.0827 22.1404 29.9493ZM17.6243 20.7336L4.69021 12.5761L17.6243 4.41856L30.5585 12.5761L17.6243 20.7336ZM34.7976 37.6909H33.4974V32.5457C33.4974 31.8443 33.7893 31.2737 34.1475 31.2737C34.506 31.2737 34.7976 31.8443 34.7976 32.5457V37.6909Z" fill="black"/>
</svg>
