<svg width="37" height="42" viewBox="0 0 37 42" fill="none" xmlns="http://www.w3.org/2000/svg">
<path d="M34.1919 16.5633L20.2514 2.6458C18.8103 1.20697 16.4651 1.20689 15.0238 2.6458C13.7282 3.93919 13.6166 5.91179 14.5733 7.32034L14.5539 7.41722C13.5489 12.4347 11.102 16.9992 7.47773 20.6174L1.08359 27.001C-0.361072 28.4434 -0.361318 30.7776 1.08359 32.22L4.56861 35.6993C6.01319 37.1415 8.35149 37.1416 9.79623 35.6993L10.6675 34.8294L16.7664 40.9182C18.2111 42.3606 20.5492 42.3607 21.994 40.9182C23.4353 39.4794 23.4353 37.1382 21.994 35.6993L19.3802 33.0898L20.2515 32.22C21.6961 30.7778 21.6963 28.4435 20.2515 27.0011L19.6594 26.4099C22.5721 24.374 25.8801 22.9565 29.4127 22.2512L29.5109 22.2316C30.9532 23.2037 32.9245 23.0474 34.1919 21.7821H34.192C35.633 20.3434 35.633 18.0022 34.1919 16.5633ZM8.05372 33.9596C7.57222 34.4402 6.79262 34.4403 6.31112 33.9595L2.8261 30.4803C2.34452 29.9994 2.34452 29.2214 2.8261 28.7406L8.92493 22.6518L14.1526 27.8708C13.5559 28.4665 8.66512 33.3491 8.05372 33.9596ZM20.2514 37.4389C20.7317 37.9184 20.7317 38.6989 20.2514 39.1785C19.771 39.6581 18.9892 39.6581 18.5089 39.1785L12.41 33.0897L14.1526 31.35L20.2514 37.4389ZM15.8951 29.6104C16.2655 29.2406 16.8199 28.6742 17.695 27.928L18.5089 28.7406C18.9905 29.2214 18.9905 29.9994 18.5089 30.4803L17.6376 31.3501L15.8951 29.6104ZM15.9474 26.1835L10.6149 20.8598C13.4726 17.5655 15.5191 13.6769 16.6139 9.45225L27.3739 20.1944C23.1423 21.2874 19.2472 23.3304 15.9474 26.1835ZM32.4491 20.0424C31.9676 20.5231 31.1882 20.5231 30.7066 20.0424L16.7663 6.12507C16.2847 5.6442 16.2847 4.86622 16.7663 4.38543C17.2479 3.90465 18.0273 3.90465 18.5089 4.38543L32.4491 18.3027C32.9295 18.7823 32.9295 19.5627 32.4491 20.0424Z" fill="black"/>
<path d="M34.1749 2.82049C33.6938 2.34011 32.9136 2.34011 32.4324 2.82049L29.9681 5.28076C29.4869 5.76113 29.4869 6.54002 29.9681 7.02039C30.4491 7.50077 31.2294 7.50085 31.7106 7.02039L34.1749 4.56012C34.6561 4.07974 34.6561 3.30094 34.1749 2.82049Z" fill="black"/>
<path d="M9.79623 27.0009C9.31514 26.5205 8.53489 26.5205 8.05371 27.0009L6.3112 28.7405C5.83002 29.2209 5.83002 29.9998 6.3112 30.4802C6.79228 30.9606 7.57263 30.9606 8.05371 30.4802L9.79623 28.7405C10.2774 28.2602 10.2774 27.4813 9.79623 27.0009Z" fill="black"/>
<path d="M25.9106 0C25.2301 0 24.6785 0.550756 24.6785 1.23014V3.69041C24.6785 4.36979 25.2301 4.92055 25.9106 4.92055C26.5911 4.92055 27.1428 4.36979 27.1428 3.69041V1.23014C27.1428 0.550756 26.5911 0 25.9106 0Z" fill="black"/>
<path d="M35.7678 9.84094H33.3035C32.623 9.84094 32.0713 10.3917 32.0713 11.0711C32.0713 11.7505 32.623 12.3012 33.3035 12.3012H35.7678C36.4483 12.3012 37 11.7505 37 11.0711C37 10.3917 36.4482 9.84094 35.7678 9.84094Z" fill="black"/>
</svg>
