<svg width="13" height="20" viewBox="0 0 13 20" fill="none" xmlns="http://www.w3.org/2000/svg">
<path d="M9.1 12.6415H8.45116C8.07762 12.6415 7.9144 12.028 8.18191 11.7295C9.55182 10.1969 10.4 7.07922 10.4 5.14035C10.4 2.30592 8.65049 0 6.5 0C4.34922 0 2.6 2.30592 2.6 5.14035C2.6 7.07922 3.44789 10.1969 4.8178 11.7295C5.08473 12.0273 4.92296 12.6415 4.54856 12.6415H3.9C1.74922 12.6415 0 14.9474 0 17.7818V18.9241C0 19.2398 0.193844 19.4953 0.433333 19.4953H12.5667C12.8062 19.4953 13 19.2398 13 18.9241V17.7818C13 14.9474 11.2505 12.6415 9.1 12.6415Z" fill="black"/>
</svg>
