<svg width="485" height="84" viewBox="0 0 485 84" fill="none" xmlns="http://www.w3.org/2000/svg">
<path d="M31.2601 83.668C27.882 83.668 24.5039 83.3987 21.1258 82.8602C17.7478 82.3985 14.5616 81.6676 11.5674 80.6675C8.57318 79.5904 5.88606 78.2825 3.50604 76.7437C2.1241 75.8205 1.16442 74.7049 0.626993 73.397C0.0895705 72.0891 -0.102366 70.8197 0.0511831 69.5887C0.281507 68.2808 0.780543 67.1652 1.54829 66.242C2.39281 65.2418 3.42927 64.6263 4.65767 64.3955C5.88606 64.1647 7.22962 64.5109 8.68834 65.4341C12.0664 67.4345 15.6364 68.8963 19.3984 69.8195C23.1604 70.7427 27.1143 71.2043 31.2601 71.2043C37.3253 71.2043 41.7399 70.2042 44.5037 68.2038C47.2676 66.1266 48.6496 63.4723 48.6496 60.2409C48.6496 57.5482 47.6515 55.4324 45.6554 53.8937C43.736 52.355 40.3963 51.0856 35.6363 50.0854L22.9684 47.4311C15.6748 45.8924 10.2238 43.315 6.61542 39.699C3.08378 36.0061 1.31797 31.1591 1.31797 25.1581C1.31797 21.3882 2.08571 17.9646 3.62121 14.8871C5.1567 11.8097 7.30639 9.15539 10.0703 6.92425C12.9109 4.6931 16.2506 3.00051 20.0894 1.84646C24.0049 0.615487 28.3043 0 32.9875 0C37.594 0 41.9702 0.57702 46.116 1.73106C50.2618 2.8851 53.9854 4.57769 57.2867 6.80884C58.5151 7.65514 59.3213 8.69378 59.7051 9.92476C60.1658 11.1557 60.2809 12.3867 60.0506 13.6177C59.8203 14.7717 59.2829 15.7719 58.4384 16.6182C57.5938 17.4645 56.519 17.9646 55.2138 18.1184C53.9854 18.2723 52.5651 17.8876 50.9528 16.9644C48.1122 15.3487 45.2331 14.1947 42.3157 13.5023C39.3982 12.8099 36.2505 12.4636 32.8724 12.4636C29.3407 12.4636 26.3081 12.9637 23.7746 13.9639C21.241 14.9641 19.2832 16.3874 17.9013 18.2338C16.5961 20.0034 15.9435 22.1191 15.9435 24.5811C15.9435 27.3508 16.8648 29.5819 18.7074 31.2745C20.55 32.8902 23.6978 34.1596 28.1507 35.0829L40.7034 37.7371C48.3041 39.3528 53.947 41.8917 57.6322 45.3538C61.3942 48.8159 63.2752 53.4321 63.2752 59.2023C63.2752 62.8952 62.5074 66.242 60.9719 69.2425C59.5132 72.243 57.3635 74.8203 54.5228 76.9745C51.7589 79.1288 48.4193 80.7829 44.5037 81.9369C40.5882 83.091 36.1737 83.668 31.2601 83.668Z" fill="white"/>
<path d="M101.188 83.4372C98.8077 83.4372 96.9651 82.7832 95.66 81.4753C94.4316 80.0905 93.8174 78.2055 93.8174 75.8205V13.5023H71.3608C69.3646 13.5023 67.7908 12.9637 66.6391 11.8866C65.5643 10.7326 65.0269 9.19386 65.0269 7.27046C65.0269 5.27012 65.5643 3.76987 66.6391 2.7697C67.7908 1.69259 69.3646 1.15404 71.3608 1.15404H131.015C133.011 1.15404 134.546 1.69259 135.621 2.7697C136.773 3.76987 137.349 5.27012 137.349 7.27046C137.349 9.19386 136.773 10.7326 135.621 11.8866C134.546 12.9637 133.011 13.5023 131.015 13.5023H108.558V75.8205C108.558 78.2055 107.944 80.0905 106.716 81.4753C105.487 82.7832 103.645 83.4372 101.188 83.4372Z" fill="white"/>
<path d="M246.931 83.4372C244.551 83.4372 242.708 82.7832 241.403 81.4753C240.175 80.0905 239.56 78.2055 239.56 75.8205V8.65531C239.56 6.19335 240.213 4.34689 241.518 3.11591C242.823 1.808 244.666 1.15404 247.046 1.15404H274.8C283.706 1.15404 290.577 3.38519 295.414 7.84748C300.251 12.3098 302.669 18.5416 302.669 26.5429C302.669 34.5443 300.251 40.8146 295.414 45.3538C290.577 49.8161 283.706 52.0473 274.8 52.0473H254.301V75.8205C254.301 78.2055 253.687 80.0905 252.459 81.4753C251.23 82.7832 249.388 83.4372 246.931 83.4372ZM254.301 40.3914H272.497C277.717 40.3914 281.671 39.2374 284.358 36.9293C287.046 34.5443 288.389 31.0822 288.389 26.5429C288.389 22.0037 287.046 18.5801 284.358 16.272C281.671 13.9639 277.717 12.8099 272.497 12.8099H254.301V40.3914Z" fill="white"/>
<path d="M370.758 84C365.16 84 360.215 83.2671 355.921 81.8013C351.704 80.3354 348.138 78.1753 345.224 75.3208C342.311 72.3891 340.125 68.7631 338.669 64.4428C337.212 60.1224 336.483 55.1077 336.483 49.3987V7.85404C336.483 5.30812 337.097 3.41797 338.324 2.18359C339.627 0.949208 341.467 0.332016 343.844 0.332016C346.221 0.332016 348.023 0.949208 349.25 2.18359C350.553 3.41797 351.205 5.30812 351.205 7.85404V49.283C351.205 56.6121 352.854 62.1283 356.151 65.8314C359.525 69.4574 364.394 71.2704 370.758 71.2704C377.122 71.2704 381.953 69.4574 385.25 65.8314C388.547 62.1283 390.195 56.6121 390.195 49.283V7.85404C390.195 5.30812 390.809 3.41797 392.036 2.18359C393.339 0.949208 395.179 0.332016 397.556 0.332016C399.857 0.332016 401.62 0.949208 402.847 2.18359C404.15 3.41797 404.802 5.30812 404.802 7.85404V49.3987C404.802 56.9593 403.499 63.3241 400.892 68.4931C398.361 73.6621 394.566 77.5581 389.505 80.1811C384.445 82.727 378.195 84 370.758 84Z" fill="url(#paint0_linear_94_16)"/>
<path d="M429.333 83.7686C426.956 83.7686 425.116 83.1128 423.812 81.8013C422.585 80.4126 421.972 78.5224 421.972 76.1308V8.77982C421.972 6.31106 422.624 4.45948 423.927 3.2251C425.231 1.91357 427.071 1.2578 429.448 1.2578H457.166C466.061 1.2578 472.923 3.49512 477.754 7.96976C482.585 12.4444 485 18.6935 485 26.7169C485 34.7404 482.585 41.0281 477.754 45.5798C472.923 50.0545 466.061 52.2918 457.166 52.2918H436.694V76.1308C436.694 78.5224 436.08 80.4126 434.853 81.8013C433.627 83.1128 431.786 83.7686 429.333 83.7686ZM436.694 40.6037H454.866C460.08 40.6037 464.029 39.4465 466.713 37.132C469.396 34.7404 470.738 31.2687 470.738 26.7169C470.738 22.1652 469.396 18.732 466.713 16.4176C464.029 14.1031 460.08 12.9459 454.866 12.9459H436.694V40.6037Z" fill="url(#paint1_linear_94_16)"/>
<path d="M158.462 7.13834C158.462 3.74605 161.208 0.996047 164.595 0.996047H224.598C227.986 0.996047 230.731 3.74605 230.731 7.13834C230.731 10.5306 227.986 13.2806 224.598 13.2806H164.595C161.208 13.2806 158.462 10.5306 158.462 7.13834Z" fill="url(#paint2_linear_94_16)"/>
<path d="M141.887 41.668C141.887 38.2757 144.632 35.5257 148.019 35.5257H208.023C211.41 35.5257 214.156 38.2757 214.156 41.668C214.156 45.0603 211.41 47.8103 208.023 47.8103H148.019C144.632 47.8103 141.887 45.0603 141.887 41.668Z" fill="url(#paint3_linear_94_16)"/>
<path d="M125.311 76.1976C125.311 72.8053 128.057 70.0553 131.444 70.0553H191.447C194.835 70.0553 197.58 72.8053 197.58 76.1976C197.58 79.5899 194.835 82.3399 191.447 82.3399H131.444C128.057 82.3399 125.311 79.5899 125.311 76.1976Z" fill="url(#paint4_linear_94_16)"/>
<defs>
<linearGradient id="paint0_linear_94_16" x1="305.156" y1="0.332016" x2="305.156" y2="84" gradientUnits="userSpaceOnUse">
<stop stop-color="#FF008A"/>
<stop offset="1" stop-color="#5200FF"/>
</linearGradient>
<linearGradient id="paint1_linear_94_16" x1="305.156" y1="0.332016" x2="305.156" y2="84" gradientUnits="userSpaceOnUse">
<stop stop-color="#FF008A"/>
<stop offset="1" stop-color="#5200FF"/>
</linearGradient>
<linearGradient id="paint2_linear_94_16" x1="305.156" y1="0.332016" x2="305.156" y2="84" gradientUnits="userSpaceOnUse">
<stop stop-color="#FF008A"/>
<stop offset="1" stop-color="#5200FF"/>
</linearGradient>
<linearGradient id="paint3_linear_94_16" x1="305.156" y1="0.332016" x2="305.156" y2="84" gradientUnits="userSpaceOnUse">
<stop stop-color="#FF008A"/>
<stop offset="1" stop-color="#5200FF"/>
</linearGradient>
<linearGradient id="paint4_linear_94_16" x1="305.156" y1="0.332016" x2="305.156" y2="84" gradientUnits="userSpaceOnUse">
<stop stop-color="#FF008A"/>
<stop offset="1" stop-color="#5200FF"/>
</linearGradient>
</defs>
</svg>
