<svg width="37" height="42" viewBox="0 0 37 42" fill="none" xmlns="http://www.w3.org/2000/svg">
<path d="M33.5939 5.27181H27.7115V1.23047C27.7115 0.550921 27.2261 0 26.6275 0H1.08398C0.485336 0 0 0.550921 0 1.23047V35.4976C0 39.083 2.56969 41.9999 5.72828 41.9999C5.72828 41.9999 23.7356 42 31.2718 42C34.4354 41.9999 37 39.0887 37 35.4976V9.13818C37 7.00628 35.472 5.27181 33.5939 5.27181ZM30.4188 7.73274C30.2671 8.17473 30.1878 8.64952 30.1878 9.13826V13.1797H27.7115V7.73282H30.4188V7.73274ZM5.72828 39.5389C3.76511 39.5389 2.16797 37.726 2.16797 35.4976V2.46093H25.5435V35.4976C25.5435 37.0254 26.0089 38.4291 26.786 39.5389H5.72828ZM34.832 35.4976C34.832 37.7296 33.2381 39.539 31.2717 39.539C29.6835 39.539 28.3386 38.3582 27.88 36.728H31.2717C31.8704 36.728 32.3557 36.1771 32.3557 35.4976C32.3557 34.818 31.8704 34.2671 31.2717 34.2671H27.7114V31.4561H31.2717C31.8704 31.4561 32.3557 30.9052 32.3557 30.2257C32.3557 29.5461 31.8704 28.9952 31.2717 28.9952H27.7114V26.1842H31.2717C31.8704 26.1842 32.3557 25.6333 32.3557 24.9538C32.3557 24.2742 31.8704 23.7233 31.2717 23.7233H27.7114V20.9124H31.2717C31.8704 20.9124 32.3557 20.3614 32.3557 19.6819C32.3557 19.0023 31.8704 18.4514 31.2717 18.4514H27.7114V15.6405H31.2717C31.8704 15.6405 32.3557 15.0895 32.3557 14.41V9.13826C32.3557 8.37053 32.9025 7.73274 33.5938 7.73274C34.2765 7.73274 34.832 8.36332 34.832 9.13826V35.4976H34.832Z" fill="black"/>
<path d="M21.9832 5.27173H5.72827C5.12962 5.27173 4.64429 5.82265 4.64429 6.5022C4.64429 7.18174 5.12962 7.73266 5.72827 7.73266H21.9832C22.5818 7.73266 23.0672 7.18174 23.0672 6.5022C23.0672 5.82265 22.5818 5.27173 21.9832 5.27173Z" fill="black"/>
<path d="M11.5336 23.7233H5.72827C5.12962 23.7233 4.64429 24.2742 4.64429 24.9537C4.64429 25.6333 5.12962 26.1842 5.72827 26.1842H11.5336C12.1322 26.1842 12.6176 25.6333 12.6176 24.9537C12.6176 24.2742 12.1322 23.7233 11.5336 23.7233Z" fill="black"/>
<path d="M21.9832 34.2671H16.1779C15.5792 34.2671 15.0939 34.818 15.0939 35.4976C15.0939 36.1771 15.5792 36.728 16.1779 36.728H21.9832C22.5818 36.728 23.0672 36.1771 23.0672 35.4976C23.0672 34.818 22.5818 34.2671 21.9832 34.2671Z" fill="black"/>
<path d="M11.5336 34.2671H5.72827C5.12962 34.2671 4.64429 34.818 4.64429 35.4976C4.64429 36.1771 5.12962 36.728 5.72827 36.728H11.5336C12.1322 36.728 12.6176 36.1771 12.6176 35.4976C12.6176 34.818 12.1322 34.2671 11.5336 34.2671Z" fill="black"/>
<path d="M21.9832 28.9952H16.1779C15.5792 28.9952 15.0939 29.5461 15.0939 30.2256C15.0939 30.9052 15.5792 31.4561 16.1779 31.4561H21.9832C22.5818 31.4561 23.0672 30.9052 23.0672 30.2256C23.0672 29.5461 22.5818 28.9952 21.9832 28.9952Z" fill="black"/>
<path d="M11.5336 28.9952H5.72827C5.12962 28.9952 4.64429 29.5461 4.64429 30.2256C4.64429 30.9052 5.12962 31.4561 5.72827 31.4561H11.5336C12.1322 31.4561 12.6176 30.9052 12.6176 30.2256C12.6176 29.5461 12.1322 28.9952 11.5336 28.9952Z" fill="black"/>
<path d="M21.9832 10.5436H5.72827C5.12962 10.5436 4.64429 11.0946 4.64429 11.7741V19.6819C4.64429 20.3615 5.12962 20.9124 5.72827 20.9124H21.9832C22.5818 20.9124 23.0672 20.3615 23.0672 19.6819V11.7741C23.0672 11.0946 22.5818 10.5436 21.9832 10.5436ZM20.8992 18.4515H6.81226V13.0047H20.8992V18.4515Z" fill="black"/>
</svg>
