<svg width="25" height="25" viewBox="0 0 25 25" fill="none" xmlns="http://www.w3.org/2000/svg">
<path d="M24.7152 23.3408L18.614 17.2397C20.1305 15.416 21.0442 13.0741 21.0442 10.5225C21.0442 4.72035 16.324 0 10.5222 0C4.72021 0 0 4.72035 0 10.5225C0 16.3242 4.72021 21.0441 10.5222 21.0441C13.0737 21.0441 15.4156 20.1306 17.2393 18.6141L23.3407 24.7153C23.5304 24.9051 23.7792 25 24.0279 25C24.2766 25 24.5255 24.9051 24.7153 24.7153C25.0949 24.3357 25.0949 23.7203 24.7152 23.3408ZM1.94397 10.5225C1.94397 5.79226 5.79211 1.94397 10.5222 1.94397C15.2521 1.94397 19.1001 5.79226 19.1001 10.5225C19.1001 15.2523 15.2521 19.1002 10.5222 19.1002C5.79211 19.1002 1.94397 15.2523 1.94397 10.5225Z" fill="black"/>
</svg>
