<svg width="557" height="96" viewBox="0 0 557 96" fill="none" xmlns="http://www.w3.org/2000/svg">
<path d="M35.9008 95.6205C32.0212 95.6205 28.1416 95.3128 24.262 94.6973C20.3825 94.1698 16.7233 93.3344 13.2846 92.1914C9.84589 90.9604 6.75987 89.4657 4.02653 87.7071C2.43943 86.652 1.33728 85.3771 0.720073 83.8823C0.102868 82.3875 -0.117563 80.9368 0.0587815 79.5299C0.323298 78.0352 0.896417 76.7602 1.77814 75.7051C2.74803 74.562 3.93836 73.8586 5.34911 73.5948C6.75987 73.3311 8.30288 73.7267 9.97815 74.7819C13.8577 77.068 17.9577 78.7386 22.2782 79.7937C26.5986 80.8488 31.1395 81.3764 35.9008 81.3764C42.8664 81.3764 47.9363 80.2333 51.1105 77.9472C54.2847 75.5732 55.8718 72.5397 55.8718 68.8468C55.8718 65.7693 54.7255 63.3514 52.4331 61.5928C50.2288 59.8343 46.3933 58.3835 40.9266 57.2404L26.3782 54.207C18.0018 52.4484 11.7416 49.5029 7.5975 45.3703C3.54158 41.1498 1.51362 35.6104 1.51362 28.7521C1.51362 24.4437 2.39534 20.5309 4.15879 17.0139C5.92223 13.4968 8.39105 10.4633 11.5653 7.91342C14.8276 5.36354 18.6631 3.42915 23.0717 2.11024C27.5685 0.703414 32.5061 0 37.8847 0C43.175 0 48.2008 0.659451 52.9621 1.97835C57.7234 3.29726 61.9997 5.23165 65.7912 7.78154C67.2019 8.74873 68.1277 9.93574 68.5686 11.3426C69.0976 12.7494 69.2299 14.1562 68.9653 15.5631C68.7008 16.882 68.0836 18.025 67.1137 18.9922C66.1438 19.9594 64.9094 20.5309 63.4105 20.7068C61.9997 20.8826 60.3686 20.443 58.5169 19.3879C55.2546 17.5414 51.9481 16.2225 48.5976 15.4312C45.247 14.6398 41.632 14.2442 37.7524 14.2442C33.6965 14.2442 30.2137 14.8157 27.304 15.9587C24.3943 17.1018 22.1459 18.7284 20.5588 20.8387C19.0599 22.861 18.3104 25.279 18.3104 28.0927C18.3104 31.258 19.3685 33.8079 21.4846 35.7423C23.6008 37.5888 27.2158 39.0396 32.3298 40.0947L46.746 43.1282C55.475 44.9746 61.9557 47.8762 66.1879 51.8329C70.5084 55.7896 72.6686 61.0653 72.6686 67.6598C72.6686 71.8803 71.7869 75.7051 70.0234 79.1342C68.3481 82.5634 65.8793 85.5089 62.6169 87.9709C59.4427 90.4329 55.6073 92.3233 51.1105 93.6422C46.6137 94.9611 41.5438 95.6205 35.9008 95.6205Z" fill="black"/>
<path d="M116.209 95.3568C113.476 95.3568 111.36 94.6094 109.861 93.1146C108.45 91.5319 107.745 89.3777 107.745 86.652V15.4312H81.9546C79.6621 15.4312 77.8545 14.8157 76.532 13.5847C75.2975 12.2658 74.6804 10.5073 74.6804 8.3091C74.6804 6.023 75.2975 4.30842 76.532 3.16537C77.8545 1.93439 79.6621 1.3189 81.9546 1.3189H150.464C152.757 1.3189 154.52 1.93439 155.755 3.16537C157.077 4.30842 157.739 6.023 157.739 8.3091C157.739 10.5073 157.077 12.2658 155.755 13.5847C154.52 14.8157 152.757 15.4312 150.464 15.4312H124.674V86.652C124.674 89.3777 123.969 91.5319 122.558 93.1146C121.147 94.6094 119.031 95.3568 116.209 95.3568Z" fill="black"/>
<path d="M283.589 95.3568C280.855 95.3568 278.739 94.6094 277.24 93.1146C275.829 91.5319 275.124 89.3777 275.124 86.652V9.89178C275.124 7.07812 275.873 4.96787 277.372 3.56104C278.871 2.06628 280.987 1.3189 283.721 1.3189H315.595C325.823 1.3189 333.714 3.86878 339.269 8.96855C344.824 14.0683 347.602 21.1904 347.602 30.3348C347.602 39.4792 344.824 46.6452 339.269 51.8329C333.714 56.9327 325.823 59.4826 315.595 59.4826H292.053V86.652C292.053 89.3777 291.348 91.5319 289.937 93.1146C288.526 94.6094 286.41 95.3568 283.589 95.3568ZM292.053 46.1616H312.95C318.946 46.1616 323.486 44.8427 326.572 42.2049C329.658 39.4792 331.202 35.5225 331.202 30.3348C331.202 25.1471 329.658 21.2344 326.572 18.5966C323.486 15.9587 318.946 14.6398 312.95 14.6398H292.053V46.1616Z" fill="black"/>
<path d="M425.798 96C419.37 96 413.69 95.1624 408.759 93.4871C403.915 91.8119 399.82 89.3432 396.474 86.0809C393.128 82.7304 390.618 78.5864 388.945 73.6489C387.272 68.7113 386.435 62.9803 386.435 56.4557V8.97605C386.435 6.06643 387.14 3.90626 388.549 2.49553C390.046 1.08481 392.159 0.379447 394.889 0.379447C397.619 0.379447 399.688 1.08481 401.097 2.49553C402.594 3.90626 403.343 6.06643 403.343 8.97605V56.3234C403.343 64.6996 405.236 71.0038 409.023 75.2359C412.897 79.3799 418.489 81.4519 425.798 81.4519C433.107 81.4519 438.655 79.3799 442.441 75.2359C446.228 71.0038 448.121 64.6996 448.121 56.3234V8.97605C448.121 6.06643 448.826 3.90626 450.235 2.49553C451.732 1.08481 453.845 0.379447 456.575 0.379447C459.217 0.379447 461.242 1.08481 462.651 2.49553C464.148 3.90626 464.897 6.06643 464.897 8.97605V56.4557C464.897 65.0964 463.4 72.3704 460.405 78.2778C457.5 84.1852 453.141 88.6378 447.329 91.6356C441.517 94.5452 434.34 96 425.798 96Z" fill="url(#paint0_linear_1_315)"/>
<path d="M493.069 95.7355C490.339 95.7355 488.225 94.986 486.728 93.4871C485.319 91.9001 484.615 89.7399 484.615 87.0066V10.0341C484.615 7.21264 485.364 5.09655 486.861 3.68583C488.358 2.18694 490.471 1.43749 493.201 1.43749H525.034C535.249 1.43749 543.131 3.99443 548.678 9.1083C554.226 14.2222 557 21.3639 557 30.5336C557 39.7033 554.226 46.8892 548.678 52.0913C543.131 57.2051 535.249 59.7621 525.034 59.7621H501.522V87.0066C501.522 89.7399 500.818 91.9001 499.409 93.4871C498 94.986 495.887 95.7355 493.069 95.7355ZM501.522 46.4043H522.393C528.381 46.4043 532.916 45.0817 535.998 42.4366C539.08 39.7033 540.621 35.7357 540.621 30.5336C540.621 25.3316 539.08 21.408 535.998 18.7629C532.916 16.1178 528.381 14.7953 522.393 14.7953H501.522V46.4043Z" fill="url(#paint1_linear_1_315)"/>
<path d="M181.986 8.1581C181.986 4.28119 185.14 1.13834 189.03 1.13834H257.941C261.831 1.13834 264.984 4.28119 264.984 8.1581C264.984 12.035 261.831 15.1779 257.941 15.1779H189.03C185.14 15.1779 181.986 12.035 181.986 8.1581Z" fill="url(#paint2_linear_1_315)"/>
<path d="M162.95 47.6206C162.95 43.7436 166.104 40.6008 169.994 40.6008H238.905C242.795 40.6008 245.948 43.7436 245.948 47.6206C245.948 51.4975 242.795 54.6403 238.905 54.6403H169.994C166.104 54.6403 162.95 51.4975 162.95 47.6206Z" fill="url(#paint3_linear_1_315)"/>
<path d="M143.914 87.083C143.914 83.2061 147.067 80.0632 150.957 80.0632H219.868C223.758 80.0632 226.912 83.2061 226.912 87.083C226.912 90.9599 223.758 94.1028 219.868 94.1028H150.957C147.067 94.1028 143.914 90.9599 143.914 87.083Z" fill="url(#paint4_linear_1_315)"/>
<defs>
<linearGradient id="paint0_linear_1_315" x1="350.457" y1="0.379447" x2="350.457" y2="96" gradientUnits="userSpaceOnUse">
<stop stop-color="#FF008A"/>
<stop offset="1" stop-color="#5200FF"/>
</linearGradient>
<linearGradient id="paint1_linear_1_315" x1="350.457" y1="0.379447" x2="350.457" y2="96" gradientUnits="userSpaceOnUse">
<stop stop-color="#FF008A"/>
<stop offset="1" stop-color="#5200FF"/>
</linearGradient>
<linearGradient id="paint2_linear_1_315" x1="350.457" y1="0.379447" x2="350.457" y2="96" gradientUnits="userSpaceOnUse">
<stop stop-color="#FF008A"/>
<stop offset="1" stop-color="#5200FF"/>
</linearGradient>
<linearGradient id="paint3_linear_1_315" x1="350.457" y1="0.379447" x2="350.457" y2="96" gradientUnits="userSpaceOnUse">
<stop stop-color="#FF008A"/>
<stop offset="1" stop-color="#5200FF"/>
</linearGradient>
<linearGradient id="paint4_linear_1_315" x1="350.457" y1="0.379447" x2="350.457" y2="96" gradientUnits="userSpaceOnUse">
<stop stop-color="#FF008A"/>
<stop offset="1" stop-color="#5200FF"/>
</linearGradient>
</defs>
</svg>
